<svg id="Livello_2" data-name="Livello 2" xmlns="http://www.w3.org/2000/svg" viewBox="0 0 1800 800"><defs><style>.cls-1{fill:#5fbffd;}.cls-2{fill:#fef136;}</style></defs><title>Tavola disegno 1</title><path class="cls-1" d="M79.87,98.77l16-79.15,79.15,16-16,79.15ZM98.33,23.36,83.61,96.28,156.54,111l14.72-72.92Z"/><circle class="cls-2" cx="93.92" cy="88.92" r="35.06" transform="translate(-12.57 162.33) rotate(-78.01)"/><circle class="cls-2" cx="1681.75" cy="173.1" r="26.5" transform="translate(1163.12 1782.21) rotate(-78.01)"/><circle class="cls-2" cx="118.43" cy="384.98" r="18.57" transform="translate(-282.75 420.86) rotate(-78.01)"/><circle class="cls-2" cx="1548.31" cy="423.03" r="38.02" transform="translate(812.91 1849.7) rotate(-78.01)"/><path class="cls-1" d="M1609.93,160.46,1622,100.63l59.83,12.08-12.08,59.83Zm14-57-11.13,55.12,55.12,11.13L1679,114.59Z"/><circle class="cls-2" cx="246.84" cy="680.04" r="26.5" transform="translate(-469.63 780.25) rotate(-78.01)"/><path class="cls-1" d="M175,667.4l12.08-59.83,59.83,12.08-12.08,59.83Zm14-57-11.13,55.12L233,676.64l11.13-55.12Z"/><path class="cls-1" d="M1699.34,763.88,1665.58,713l50.84-33.76,33.76,50.84Zm-30.43-50.17L1700,760.55l46.84-31.11-31.11-46.84Z"/></svg>