<svg id="creative_cloud" data-name="creative cloud" xmlns="http://www.w3.org/2000/svg" viewBox="0 0 100 60"><defs><style>.cls-1{fill:#fff;}</style></defs><title>Tavola disegno 1</title><g id="_Gruppo_" data-name="&lt;Gruppo&gt;"><path id="_Tracciato_composto_" data-name="&lt;Tracciato composto&gt;" class="cls-1" d="M73.43,44.4A19.89,19.89,0,0,1,66,49.1c-.9.3-1.7.5-2.6.8a18.41,18.41,0,0,1-4.1.5h-.4A20,20,0,0,1,46,45.8c-.5-.4-1-.9-1.5-1.3l-1-1-2.3-2.3-6.3-6.3a2.35,2.35,0,0,1,0-3.3,2.13,2.13,0,0,1,1.6-.7,2,2,0,0,1,1.6.7l9.5,9.5a20.91,20.91,0,0,0,2.9,2.3,15.35,15.35,0,0,0,8.2,2.3,16.66,16.66,0,0,0,3.9-.5,15.55,15.55,0,0,0,2.3-.8,16.44,16.44,0,0,0,5-3.4,15.75,15.75,0,0,0,0-22.2A15.69,15.69,0,0,0,50,16.9a20.5,20.5,0,0,0-4.3-2.6,20.85,20.85,0,0,1,13.1-4.7,20.62,20.62,0,0,1,14.4,5.9A20.4,20.4,0,0,1,73.43,44.4Zm-36.1,6a16.2,16.2,0,0,1-11.7-5.1A16.6,16.6,0,0,1,37.33,17h.1a17.91,17.91,0,0,1,2.4.2,24.37,24.37,0,0,1,2.6.6,16.49,16.49,0,0,1,4.4,2.2,13,13,0,0,1,1.8,1.5l.5.5,1.2,1.2,5.6,5.6a2.35,2.35,0,0,1,0,3.3,2.13,2.13,0,0,1-1.6.7,2,2,0,0,1-1.6-.7l-5.6-5.6-1.2-1.2c-.2-.2-.4-.3-.5-.5a11.73,11.73,0,0,0-5.6-2.7,8.2,8.2,0,0,0-2.2-.2h-.3a12,12,0,0,0-8.1,20.4,11.7,11.7,0,0,0,8.5,3.5h2.1l2,1.9A16.38,16.38,0,0,0,45,50.4Zm39.3-38.1a25.11,25.11,0,0,0-35.4,0l-.5.5a20.93,20.93,0,0,0-18.5,6,21.2,21.2,0,0,0,15,36.2h22.2a24.79,24.79,0,0,0,17.3-7.3A25.08,25.08,0,0,0,76.63,12.3Z"/></g></svg>