<svg id="atom" xmlns="http://www.w3.org/2000/svg" viewBox="0 0 100 60"><defs><style>.cls-1{fill:#fff;}</style></defs><title>Tavola disegno 1</title><path class="cls-1" d="M71.37,25c-5.49-2.34-12.86-3.85-20.75-4.27-1.26-.07-2.49-.1-3.65-.11C52.8,13.54,59,8.76,63.15,8.6a3.46,3.46,0,0,1,2.05.49c1.77,1.15,2.27,4.44,1.37,9a1.15,1.15,0,0,0,2.26.44c1.12-5.73.3-9.67-2.38-11.41a5.73,5.73,0,0,0-3.4-.86c-5.16.2-12.43,5.78-19.09,14.38a66.84,66.84,0,0,0-8.15.72c-.31-1.36-.54-2.69-.7-3.95-.63-5.21.17-8.79,2.2-9.83a3,3,0,0,1,1.15-.31c1.75-.14,4.17,1,6.82,3.2a1.15,1.15,0,1,0,1.47-1.78C43.62,6.12,40.7,4.84,38.31,5a5.3,5.3,0,0,0-2,.56c-3,1.52-4.21,5.84-3.45,12.16.16,1.3.4,2.67.71,4.07-8.25,1.66-13.51,5-13.73,9.11C19.67,33.86,22,36.66,26.56,39A1.15,1.15,0,0,0,27.62,37C24,35.08,22,33,22.13,31c.14-2.71,4.47-5.5,12-7a66.2,66.2,0,0,0,2.66,7.79c-5.87,11-8.47,22.6-3.22,26a5.63,5.63,0,0,0,3.13.88c2.34,0,5.19-1.16,8.42-3.46a1.15,1.15,0,1,0-1.34-1.88c-3.89,2.77-7.15,3.69-9,2.52s-2.33-4.89-1.16-10a51.63,51.63,0,0,1,4.29-11.37q.75,1.65,1.59,3.3c3.58,7,8,13.15,12.34,17.22C55.35,58.32,58.59,60,61.25,60a5.37,5.37,0,0,0,2.47-.57c2.88-1.47,4.12-5.55,3.52-11.51-.57-5.55-2.67-12.34-5.93-19.1a1.15,1.15,0,1,0-2.08,1c3.14,6.53,5.17,13,5.71,18.34.5,4.87-.33,8.23-2.27,9.22s-5.4-.42-9.24-4C49.25,49.49,45,43.6,41.57,36.8,40.75,35.18,40,33.56,39.3,32c.85-1.53,1.78-3.07,2.77-4.6s2-3,3.08-4.39h1c1.36,0,2.83,0,4.36.11,7.62.4,14.71,1.85,20,4.09C75.29,29.2,78,31.68,77.87,34c-.1,1.92-2.32,3.86-6.1,5.33a1.15,1.15,0,1,0,.83,2.15C77.4,39.58,80,37,80.17,34.08,80.35,30.73,77.22,27.51,71.37,25ZM40.14,26.1c-.67,1-1.31,2.08-1.93,3.14-.72-1.9-1.33-3.77-1.82-5.58,1.79-.27,3.74-.47,5.82-.59Q41.15,24.53,40.14,26.1Z"/><circle class="cls-1" cx="50.19" cy="32.91" r="3.46"/></svg>