<svg id="aws" xmlns="http://www.w3.org/2000/svg" viewBox="0 0 100 60"><defs><style>.cls-1{fill:#fffeff;}</style></defs><title>Tavola disegno 1</title><polygon class="cls-1" points="44.4 17.59 53.7 20.69 53.71 6.9 44.4 4.14 44.4 17.59"/><polygon class="cls-1" points="56.12 20.69 65.4 17.58 65.43 4.14 56.12 6.9 56.12 20.69"/><polygon class="cls-1" points="54.86 0 46.29 2.68 54.87 4.98 63.53 2.68 54.86 0"/><polygon class="cls-1" points="67.84 17.59 77.14 20.69 77.16 6.9 67.84 4.14 67.84 17.59"/><polygon class="cls-1" points="79.57 6.9 79.57 20.69 88.85 17.58 88.88 4.14 79.57 6.9"/><polygon class="cls-1" points="78.31 0 69.74 2.68 78.32 4.98 86.98 2.68 78.31 0"/><polygon class="cls-1" points="20.95 40.34 30.23 37.23 30.26 23.79 20.95 26.55 20.95 40.34"/><polygon class="cls-1" points="19.68 19.66 11.12 22.34 19.7 24.64 28.36 22.34 19.68 19.66"/><polygon class="cls-1" points="32.67 37.24 41.97 40.34 41.98 26.55 32.67 23.79 32.67 37.24"/><polygon class="cls-1" points="44.4 40.34 53.67 37.23 53.71 23.79 44.4 26.55 44.4 40.34"/><polygon class="cls-1" points="43.13 19.66 34.57 22.34 43.15 24.64 51.81 22.34 43.13 19.66"/><polygon class="cls-1" points="20.95 56.9 30.25 60 30.26 46.21 20.95 43.45 20.95 56.9"/><polygon class="cls-1" points="32.67 60 41.95 56.89 41.98 43.45 32.67 46.21 32.67 60"/><polygon class="cls-1" points="31.41 39.31 22.84 41.99 31.42 44.29 40.09 41.99 31.41 39.31"/></svg>