<svg id="browserstack" xmlns="http://www.w3.org/2000/svg" viewBox="0 0 100 60"><defs><style>.cls-1{fill:#fff;}</style></defs><title>Tavola disegno 1</title><path class="cls-1" d="M22.81,17.79A31.55,31.55,0,0,0,20.89,30.4,24.57,24.57,0,0,0,42.77,53.17,29.23,29.23,0,0,0,74.65,29,24.45,24.45,0,0,0,71,11.19a1.93,1.93,0,0,0-.65-.62c1.78,3.24,3.21,6.57,3.36,10.33A22.36,22.36,0,0,0,65.42,7.6a21.34,21.34,0,0,0-33.9,13,16.12,16.12,0,0,0,9.29,18.31,17.48,17.48,0,0,0,21-5.91,24.93,24.93,0,0,0,2.26-4c3-6.43-.43-15-5.58-17.76a13,13,0,0,0-14.75,1.72,12.66,12.66,0,0,0-3.61,14,5.22,5.22,0,0,0,.72,1.24c-1.18-3.68-1-7.17,1.29-10.38a10.29,10.29,0,0,1,12.49-3.5,10.65,10.65,0,0,1,6.22,11,10.41,10.41,0,0,1-9.06,9.11c-8.11.93-14.46-4.18-15.47-12.44C35.46,14.59,41.1,7.57,48.69,6.54a19.74,19.74,0,0,1,22,17.18c1.45,10.68-6.11,20.93-16.55,22.45A23.43,23.43,0,0,1,26.93,22.55C27.13,10.05,38-.22,50.86,0A30,30,0,1,1,20.47,35.1,27.83,27.83,0,0,1,22.81,17.79Zm34.29.84c-.31-.29-.86-1.23-1.59-1.4-1.43-.33-3.21,2-3.19,3.91,0,1.07.33,2,1.58,2.1C55.42,23.36,57.08,21.26,57.1,18.63Z"/><path class="cls-1" d="M57.1,18.63c0,2.63-1.68,4.73-3.2,4.61-1.25-.1-1.57-1-1.58-2.1,0-1.92,1.76-4.23,3.19-3.91C56.24,17.39,56.79,18.34,57.1,18.63Z"/></svg>