<svg id="chef" xmlns="http://www.w3.org/2000/svg" viewBox="0 0 100 60"><defs><style>.cls-1{fill:#fff;}</style></defs><title>Tavola disegno 1</title><path class="cls-1" d="M66.86,33.45H62.05a12.43,12.43,0,1,1,0-6.9h4.81a17.1,17.1,0,1,0,0,6.9Z"/><path class="cls-1" d="M50.11,36.9a6.89,6.89,0,0,1-4.88-2l-3.5,3.5a11.82,11.82,0,0,0,8.38,3.48Z"/><path class="cls-1" d="M50.11,23.1v-5A11.85,11.85,0,0,0,39.26,34.77l4.53-2a6.9,6.9,0,0,1,6.32-9.68Z"/><path class="cls-1" d="M61.45,26.55a11.91,11.91,0,0,0-7-7.6l-1.8,4.62a6.92,6.92,0,0,1,3.47,3Z"/><path class="cls-1" d="M61.45,33.45H56.08a6.92,6.92,0,0,1-3.47,3L54.41,41A11.91,11.91,0,0,0,61.45,33.45Z"/><path class="cls-1" d="M28.17,36.63c-.08-.26-.15-.52-.22-.78v0c-.06-.24-.12-.49-.18-.73l0-.15c0-.21-.09-.42-.13-.64L27.54,34c0-.17-.06-.34-.09-.51s0-.29-.06-.44a22.58,22.58,0,0,1-.21-3H22.5a27.57,27.57,0,0,0,.2,3.32v.07c0,.3.08.6.12.89l0,.25c0,.24.08.48.13.72s.05.25.08.38.08.38.12.57.08.33.12.5l.11.45.17.59.07.25h0a27.43,27.43,0,0,0,1.15,3.12l4.29-1.89a22.77,22.77,0,0,1-1-2.59Z"/><path class="cls-1" d="M50.11,52.92a22.85,22.85,0,0,1-16.2-6.72l-3.32,3.32A27.6,27.6,0,0,0,77.5,33.45H72.77A23,23,0,0,1,50.11,52.92Z"/><path class="cls-1" d="M50.11,7.08a22.79,22.79,0,0,1,13.7,4.56l2.81-3.76A27.61,27.61,0,0,0,24.38,20l4.37,1.7A23,23,0,0,1,50.11,7.08Z"/><path class="cls-1" d="M77.5,26.55a27.42,27.42,0,0,0-4-11.17l-4,2.48a22.79,22.79,0,0,1,3.22,8.68Z"/><path class="cls-1" d="M58.21,9.17l-1.69,4.35a17.74,17.74,0,0,1,10.93,13h4.74A22.42,22.42,0,0,0,58.21,9.17Z"/><path class="cls-1" d="M50.11,12.32V7.65h0A22.38,22.38,0,0,0,29.28,21.9l4.35,1.69A17.71,17.71,0,0,1,50.11,12.32Z"/><path class="cls-1" d="M41.81,50.75l1.73-4.33A17.7,17.7,0,0,1,32.43,30H27.76A22.38,22.38,0,0,0,41.81,50.75Z"/><path class="cls-1" d="M72.19,33.45H67.45A17.71,17.71,0,0,1,50.11,47.68v4.67A22.39,22.39,0,0,0,72.19,33.45Z"/></svg>