<svg id="digital_ocean" data-name="digital ocean" xmlns="http://www.w3.org/2000/svg" viewBox="0 0 100 60"><defs><style>.cls-1{fill:#fff;}</style></defs><title>Tavola disegno 1</title><g id="_Gruppo_" data-name="&lt;Gruppo&gt;"><g id="_Gruppo_2" data-name="&lt;Gruppo&gt;"><g id="_Gruppo_3" data-name="&lt;Gruppo&gt;"><g id="_Gruppo_4" data-name="&lt;Gruppo&gt;"><g id="_Gruppo_5" data-name="&lt;Gruppo&gt;"><path id="_Tracciato_" data-name="&lt;Tracciato&gt;" class="cls-1" d="M50,60V48.37A18.45,18.45,0,0,0,67.14,23.21,17.38,17.38,0,0,0,56.77,12.84,18.47,18.47,0,0,0,31.61,30H20A30.09,30.09,0,0,1,59.56,1.49,29,29,0,0,1,78.49,20.42,30.09,30.09,0,0,1,50,60Z"/></g><polygon id="_Tracciato_2" data-name="&lt;Tracciato&gt;" class="cls-1" points="50.04 48.41 38.48 48.41 38.48 36.85 38.48 36.85 50.04 36.85 50.04 36.85 50.04 48.41"/><polygon id="_Tracciato_3" data-name="&lt;Tracciato&gt;" class="cls-1" points="38.48 57.31 29.57 57.31 29.57 57.31 29.57 48.41 38.48 48.41 38.48 57.31"/><path id="_Tracciato_4" data-name="&lt;Tracciato&gt;" class="cls-1" d="M29.57,48.41H22.12V41h7.45Z"/></g></g></g></g></svg>