<svg id="ember" xmlns="http://www.w3.org/2000/svg" viewBox="0 0 100 60"><defs><style>.cls-1,.cls-2{fill:#fff;}.cls-2{font-size:6.72px;font-family:MyriadPro-Regular, Myriad Pro;}</style></defs><title>Tavola disegno 1</title><path class="cls-1" d="M100,36.28a1.15,1.15,0,0,0-1.68-1.05s-2.43,1.89-4.58,1.68-1.47-5-1.47-5,.46-4.39-.8-4.75-2.81,1.14-2.81,1.14a15.8,15.8,0,0,0-2.85,4.87l-.25.08s.29-4.79,0-5.88c-.25-.55-2.56-.5-2.94.46a58.61,58.61,0,0,0-2.35,10.5s-3.61,3.06-6.76,3.57-3.9-1.47-3.9-1.47,8.56-2.39,8.27-9.24-6.91-4.31-7.65-3.75-4.59,2.88-5.72,9.33c0,.22-.11,1.18-.11,1.18a29.59,29.59,0,0,1-5.16,2.81S64.34,32.07,58,28.13C55.19,26.4,52.92,30,52.92,30s8.52-9.49,6.63-17.51C58.65,8.69,56.74,8.28,55,8.9a8,8,0,0,0-3.67,2.6,29.32,29.32,0,0,0-4.24,12.43c-.8,7.43-2,16.41-2,16.41A6.25,6.25,0,0,1,42,42c-1.51.08-.84-4.49-.84-4.49s1.18-7,1.09-8.14-.17-1.81-1.55-2.23-2.9,1.34-2.9,1.34-4,6-4.32,7l-.21.38L33,35.6s2.81-8.23.13-8.35-4.45,2.94-4.45,2.94-3.06,5.12-3.19,5.71l-.21-.25s1.26-6,1-7.43A1.35,1.35,0,0,0,24.67,27s-1.76-.21-2.23.92a83.09,83.09,0,0,0-2.35,11s-4.41,3.15-7.3,3.19-2.6-1.84-2.6-1.84,10.62-3.64,7.72-10.82a5.26,5.26,0,0,0-5-2.39c-2.14,0-4.74,1.35-6.46,5.21a16.75,16.75,0,0,0-1.23,4.91h0s-1.92.38-2.93-.46-1.56,0-1.56,0S-1,39,.76,39.66a21.07,21.07,0,0,0,4.39,1h0a8.1,8.1,0,0,0,3.06,4.8c3.15,2.39,9.19-.2,9.19-.2l2.48-1.38s.08,2.28,1.89,2.61,2.56,0,5.71-7.64c1.85-3.9,2-3.69,2-3.69l.21,0s-1.43,7.47-.88,9.49,2.94,1.81,2.94,1.81,1.3.22,2.35-3.47a55.28,55.28,0,0,1,3.06-7.8h.25s-.88,7.67.46,10.11,4.83.83,4.83.83a24.26,24.26,0,0,0,2.81-1.6,9.9,9.9,0,0,0,7,2c9.11-1.79,12.35-4.21,12.35-4.21a7.52,7.52,0,0,0,6.41,4.33,10.65,10.65,0,0,0,8.56-3.06,3.38,3.38,0,0,0,1.89,3.06c1.93.8,3.23-3.72,3.23-3.72l3.23-8.94h.29s.17,5.83,3.36,6.75,7.35-2.15,7.35-2.15A2.15,2.15,0,0,0,100,36.28Zm-90.3.83c.13-5,3.4-7.18,4.53-6.09s.71,3.44-1.43,4.91S9.68,37.11,9.68,37.11ZM52.29,17.76s3-7.77,3.69-4-6.26,15-6.26,15C49.81,26.28,52.29,17.76,52.29,17.76Zm3.57,21.62a4.93,4.93,0,0,1-6.76,3.06s-.55-1.85,1-7,5.21-3.15,5.21-3.15S57.83,34.21,55.86,39.38Zm13.22-2.27s-.46-1.64,1.26-4.79,3.06-1.43,3.06-1.43,1.47,1.6-.21,4A4.94,4.94,0,0,1,69.08,37.11Z"/><text class="cls-2" transform="translate(84.89 48.74)">®</text></svg>