<svg id="github" xmlns="http://www.w3.org/2000/svg" viewBox="0 0 100 60"><defs><style>.cls-1,.cls-2{fill:#fff;}.cls-1{fill-rule:evenodd;}</style></defs><title>Tavola disegno 1</title><path class="cls-1" d="M50,0a30.76,30.76,0,0,0-9.72,59.95c1.54.28,2.1-.67,2.1-1.48s0-3.16,0-5.73C33.78,54.6,32,49.11,32,49.11c-1.4-3.56-3.42-4.5-3.42-4.5-2.79-1.91.21-1.87.21-1.87,3.09.22,4.72,3.17,4.72,3.17,2.74,4.7,7.2,3.34,9,2.56a6.55,6.55,0,0,1,2-4.11c-6.83-.78-14-3.42-14-15.2a11.9,11.9,0,0,1,3.17-8.26,11.05,11.05,0,0,1,.3-8.14s2.58-.83,8.46,3.15a29.17,29.17,0,0,1,15.4,0c5.87-4,8.45-3.15,8.45-3.15a11,11,0,0,1,.3,8.14,11.88,11.88,0,0,1,3.17,8.26c0,11.81-7.2,14.42-14,15.18,1.1,1,2.09,2.83,2.09,5.7,0,4.12,0,7.43,0,8.44,0,.82.55,1.78,2.11,1.48A30.76,30.76,0,0,0,50,0Z"/><path class="cls-2" d="M30.89,44.16c-.07.15-.31.2-.53.09s-.35-.31-.28-.46.31-.2.53-.1.35.31.27.46Zm-.38-.28"/><path class="cls-2" d="M32.14,45.55c-.15.14-.43.07-.63-.14a.47.47,0,0,1-.09-.64c.15-.14.43-.07.63.14s.24.5.09.64Zm-.29-.31"/><path class="cls-2" d="M33.35,47.32c-.19.13-.5,0-.69-.27s-.19-.6,0-.73.49,0,.69.26.19.61,0,.74Zm0,0"/><path class="cls-2" d="M35,49c-.17.19-.53.14-.79-.12a.59.59,0,0,1-.18-.79c.17-.19.53-.13.8.12s.35.6.17.79Zm0,0"/><path class="cls-2" d="M37.3,50c-.07.24-.42.35-.77.25s-.58-.39-.51-.63.42-.36.77-.25.58.39.5.63Zm0,0"/><path class="cls-2" d="M39.82,50.21c0,.25-.29.46-.65.47s-.67-.2-.67-.45.29-.46.66-.47.67.2.67.45Zm0,0"/><path class="cls-2" d="M42.16,49.82c0,.25-.21.5-.57.57s-.69-.09-.73-.33.21-.51.57-.57.69.09.74.34Zm0,0"/></svg>