<svg id="invision" xmlns="http://www.w3.org/2000/svg" viewBox="0 0 100 60"><defs><style>.cls-1{fill:#fff;}</style></defs><title>Tavola disegno 1</title><path class="cls-1" d="M72.51,2.5h-45a5,5,0,0,0-5,5v45a5,5,0,0,0,5,5h45a5,5,0,0,0,5-5v-45A5,5,0,0,0,72.51,2.5ZM40.88,13.18a3.31,3.31,0,1,1-3.36,3.31A3.32,3.32,0,0,1,40.88,13.18ZM63.36,44.85c-3.41,0-5-2-5-4.79a8.76,8.76,0,0,1,.35-2.47l1.63-5.83A5.92,5.92,0,0,0,60.54,30a2.77,2.77,0,0,0-3-3c-2.32,0-3.85,1.67-4.64,4.88L49.77,44.53H44.24l1-4c-1.63,2.67-3.89,4.33-6.67,4.33-3.36,0-4.94-1.94-4.94-4.85a11.37,11.37,0,0,1,.3-2.49h0l2.52-10.29h-3.9l1.19-4.38H43.1L39.4,37.56a9.32,9.32,0,0,0-.35,2.26c0,.94.46,1.21,1.19,1.38.44.1,4,0,5.86-4.22l2.43-9.75h-4l1.19-4.38h8.45l-1.09,5c1.48-2.77,4.45-5.4,7.36-5.4,3.11,0,5.68,2.22,5.68,6.47a12.53,12.53,0,0,1-.54,3.6l-1.58,5.68a6.55,6.55,0,0,0-.25,1.53c0,1,.4,1.48,1.14,1.48s1.68-.54,2.77-3.56l2.17.84C68.6,43,66.27,44.85,63.36,44.85Z"/></svg>