<svg id="mailchimp" xmlns="http://www.w3.org/2000/svg" viewBox="0 0 100 60"><defs><style>.cls-1{fill:#fff;}</style></defs><title>Tavola disegno 1</title><path class="cls-1" d="M78.46,39.07a3.15,3.15,0,0,0-2.19-1.72A9,9,0,0,0,75.44,35l.38-.44a3,3,0,0,0-1.9-4.87,13.06,13.06,0,0,0-3.55-2.4c-1-.48-.57-.29-1.47-.7-.24-1.17-.32-3.88-.7-5.78A6,6,0,0,0,66.12,17a8.37,8.37,0,0,0-1.73-2.52c3.33-5.1,4.2-10.14,1.77-12.77A6.07,6.07,0,0,0,61.53,0a19.15,19.15,0,0,0-9.42,3.15l-2.24-1.8C40.48-6,13.94,26.62,23.31,33.76l2.42,1.85a8.59,8.59,0,0,0,5,10.88,7.77,7.77,0,0,0,3.12.47S41,60,56,60c17.35,0,21.77-17,21.82-17.12C77.77,42.88,79.18,40.8,78.46,39.07ZM24,31.6c-1.9-3.21,1.41-9.8,3.76-13.55C33.61,8.79,43.3,1.48,47.7,2.52l1.21-.46,3.31,2.8a20.48,20.48,0,0,1,7.87-3,20.72,20.72,0,0,0-6,2.68,74.8,74.8,0,0,0-9,7.17c-1.85,1.84-9.3,10.77-9.29,10.76a35.65,35.65,0,0,1,4.41-6.55c1.22-1.53,2.52-3,3.85-4.4.62-.64,1.24-1.25,1.87-1.84Q46.5,9,47.15,8.5l.59-.5h0l-4.36-3.6L43.61,6,46.78,8.8s-2.81,1.89-4.2,3.08C37,16.66,31.49,24,29.45,31.13h.1a9.09,9.09,0,0,0-2.91,2.69A17.54,17.54,0,0,1,24,31.6ZM33.29,45a6.4,6.4,0,0,1,0-12.78,5.79,5.79,0,0,1,2.44.54s1.29.65,1.65,3.73h0A14.87,14.87,0,0,0,38,34.74a11.06,11.06,0,0,1,.57,4.12h0a8.49,8.49,0,0,0,.74-1.38A6.3,6.3,0,0,1,33.29,45Zm7.47-22.57h0a23,23,0,0,1,8.35-8.25,8.85,8.85,0,0,0-1.66.09,10.64,10.64,0,0,1,4.32-1.77A4.52,4.52,0,0,0,50,12.18h-.3a9.53,9.53,0,0,1,5.71-.74,2.73,2.73,0,0,0-1.29-.74l-.2-.05.16,0a7.41,7.41,0,0,1,4,.49,3.19,3.19,0,0,0-.71-.9l-.17-.13a9.4,9.4,0,0,1,3.31,1.41,4.6,4.6,0,0,0-.63-.84A5,5,0,0,1,62.88,13h0l.05.14h0c-2.24-1.72-8.76-1.23-15.3,3A27,27,0,0,0,40.76,22.43ZM76,42a15.46,15.46,0,0,1-5.61,8.3c-5.94,4.67-13.75,4.2-16.7,1.58a9.56,9.56,0,0,1-2.26-3.58s-.18,1.19-.21,1.65a9.25,9.25,0,0,1-1.09-4.49s-.63,1.18-.92,1.84a9,9,0,0,1-.42-4.52l-.69,1a11,11,0,0,1,.47-4.62,10.37,10.37,0,0,1,2.83-4.07,10.59,10.59,0,0,1-2.7-1.54,4.12,4.12,0,0,0,1-.05,8,8,0,0,1-3-4.59,6.31,6.31,0,0,0,1.14,1A9.81,9.81,0,0,1,47.7,26h0a5.8,5.8,0,0,1,5.82-5c3,0,5,.66,7.57-1.67a3.58,3.58,0,0,1,1.72-1.09,2.15,2.15,0,0,1,.68-.1,2.23,2.23,0,0,1,1.16.31c1.37.82,1.67,2.95,1.82,4.51.55,5.8.32,4.76,2.67,6a11.59,11.59,0,0,1,3.81,2.64h0c1.21,0,1.83,1,1.27,1.67-4,4.84-9.7,7.15-16,7.34l-.85,0C54.84,40.7,54,44,55.61,46c1,1.25,3,1.66,4.55,1.67h0c6.89.14,13.81-4.74,15-7.43l.08-.19c-.28.32-7,6.64-15.15,6.42a9.64,9.64,0,0,1-1.73-.21,2.69,2.69,0,0,1-2.27-1.85,13.09,13.09,0,0,0,2.53.22c5.89,0,10.13-2.68,9.69-2.71h-.06c-.69.16-7.76,2.9-12.24,1.5A2.2,2.2,0,0,1,56.1,43c.4-1.33,1.11-1.15,2.25-1.2h0a24.74,24.74,0,0,0,9.84-2.33,18.86,18.86,0,0,0,5.36-3.67,8,8,0,0,1,.93,3.61,2.86,2.86,0,0,1,.85-.13C76.87,39.28,77.18,40.64,76,42ZM56,43.79c0-.09,0-.18,0-.27C56,43.62,56,43.71,56,43.79Zm0,.26a1.22,1.22,0,0,0,.07.32A1.19,1.19,0,0,1,56,44.05Z"/><polygon class="cls-1" points="35.85 37.31 35.85 37.31 35.85 37.31 35.85 37.31"/><polygon class="cls-1" points="47.54 4.64 48.35 4.9 47.7 2.52 47.31 3.71 47.54 4.64"/><path class="cls-1" d="M51.16,5.51,49.82,4.39l.49,1.69Z"/><path class="cls-1" d="M63.3,27.06a3.63,3.63,0,0,1,1.94.35c0-1.65-1-3.5-1.73-3.25h0c-.42.14-.5.88-.49,1.33A5.58,5.58,0,0,0,63.3,27.06Z"/><polygon class="cls-1" points="30.77 40.48 30.77 40.48 30.77 40.48 30.77 40.48"/><polygon class="cls-1" points="70.8 55.7 71.08 55.7 71.08 56.41 71.35 56.41 71.35 55.7 71.63 55.7 71.63 55.47 70.8 55.47 70.8 55.7"/><polygon class="cls-1" points="72.27 56.01 72.1 55.47 71.71 55.47 71.71 56.41 71.96 56.41 71.96 55.73 72.16 56.41 72.37 56.41 72.58 55.73 72.58 56.41 72.82 56.41 72.82 55.47 72.44 55.47 72.27 56.01"/><path class="cls-1" d="M56.85,29.3c.54.21.91.37,1,.25s0-.2-.11-.39A3.41,3.41,0,0,0,56.2,28a4.12,4.12,0,0,0-4,.68c-.55.45-.8.91-.55,1a3,3,0,0,0,.94-.29A5.17,5.17,0,0,1,56.85,29.3Z"/><path class="cls-1" d="M57.05,30.94c.34,0,.56,0,.62,0s-.78-.87-2-.67a3.92,3.92,0,0,0-.43.11l-.15.05a2.5,2.5,0,0,0-.81.5c-.29.28-.37.54-.29.6s.28,0,.59-.16A5,5,0,0,1,57.05,30.94Z"/><path class="cls-1" d="M35.52,36.33c.32.45.22.72.35.84a.16.16,0,0,0,.18,0c.18-.07.27-.36.29-.56h0a2,2,0,0,0-.55-1.41h0a3.21,3.21,0,0,0-1.92-1,4.2,4.2,0,0,0-1.62.09h0c-.1,0-.23.06-.33.1a3.82,3.82,0,0,0-2.36,4.5,2.83,2.83,0,0,0,.62,1.29h0c.39.43.83.34.64-.05a3.43,3.43,0,0,1-.31-1.37,3.54,3.54,0,0,1,.7-2.37,2.85,2.85,0,0,1,.94-.73h0l.22-.1.1,0a2.67,2.67,0,0,1,.35-.09h0A2.58,2.58,0,0,1,35.52,36.33Z"/><polygon class="cls-1" points="29.57 38.89 29.57 38.89 29.57 38.89 29.57 38.89"/><path class="cls-1" d="M34.93,37.71a.56.56,0,0,1-.22-.32.43.43,0,0,1,.18-.53c.16-.11.29-.16.29-.23s-.53-.27-.91.1a1.17,1.17,0,0,0,.09,1.57c.56.6,1.42.74,1.55,1.49a1.43,1.43,0,0,1,0,.34,1.81,1.81,0,0,1,0,.34,1.67,1.67,0,0,1-2,1.24c-.21,0-.35-.06-.39,0s.4.68,1.29.66a2.31,2.31,0,0,0,2.08-2.77C36.65,38.35,35.39,38.09,34.93,37.71Z"/><ellipse class="cls-1" cx="65.25" cy="29.56" rx="0.87" ry="0.63" transform="matrix(0.15, -0.99, 0.99, 0.15, 25.99, 89.47)"/><ellipse class="cls-1" cx="62.45" cy="30.55" rx="0.72" ry="0.98" transform="translate(5.65 70.64) rotate(-61.28)"/></svg>