<svg id="mariadb" xmlns="http://www.w3.org/2000/svg" viewBox="0 0 100 60"><defs><style>.cls-1{fill:#fff;}</style></defs><title>Tavola disegno 1</title><path class="cls-1" d="M93.19,0c-1.4,0-1,.45-4,1.19s-6.77.52-10,1.9C69.38,7.19,67.41,21.23,58.51,26.26c-6.66,3.76-13.37,4.06-19.41,6a35.51,35.51,0,0,0-11.9,6.89c-2.79,2.41-2.86,4.52-5.78,7.54-3.12,3.23-12.39.05-16.6,5C6.18,53,6.77,53.39,9.44,53c-.55,1-3.81,1.93-3.17,3.47s8.54,2.72,15.7-1.6c3.33-2,6-4.91,11.18-5.61,6.72-.9,14.46.57,22.23,1.7-1.15,3.44-3.47,5.72-5.32,8.46-.57.62,1.15.69,3.12.31A31.12,31.12,0,0,0,62,56.63c3.29-1.91,3.79-6.82,7.82-7.88C72,52.2,78.14,53,81.94,50.26c-3.33-.94-4.25-8-3.12-11.15,1.06-3,2.12-7.68,3.19-11.59,1.15-4.2,1.58-9.48,3-11.62,2.1-3.21,4.41-4.32,6.42-6.13S95.24,6.19,95.18,2C95.16.71,94.46,0,93.19,0ZM79.1,50.1c-2.18.53-5.93-.35-6.9-1.88C72.7,46,75.28,44,76.59,42.57,76.73,44.74,78,49.05,79.1,50.1ZM89.18,10.31c-1.89,1.33-4,2.61-5.3,4.68s-2.23,9.4-4.35,16.59c-1.83,6.21-4.6,12.35-9.42,15-.5-1.27.06-3.61-.94-4.38a39.56,39.56,0,0,1-2.24,5.26c-2.83,5.42-7,9.47-14,10.71,3.33-4.5,6.51-9.15,6.58-16.91-2.34.51-2.29,6-4.7,7.51a27.8,27.8,0,0,1-4.68.07C43.63,48.49,37,46.55,31,48.49c-4.11,1.32-7.48,4.43-11,5.94A20.06,20.06,0,0,1,7.71,56.21c-.65-.87,3.73-2,3.47-3.89-2-.22-3.15.26-4.89-.53a2.59,2.59,0,0,1,.83-.89c3.18-2.2,12.21-.52,14.62-2.89a27.34,27.34,0,0,0,3.48-4.48,18.14,18.14,0,0,1,3.54-4.11c.57-.47,1.19-.93,1.85-1.38a40.32,40.32,0,0,1,9.11-4.57c4.37-1.54,8.8-1.66,13.46-3.44a35.84,35.84,0,0,0,8.56-4.36,17.09,17.09,0,0,0,1.71-1.45c7.29-7.1,8.73-19.63,20.1-20.8,1.37-.14,2.5-.1,3.52-.13a6.77,6.77,0,0,0,3.36-.81c.34,1.14.86,1.67,3.13,1.88C93.25,7.22,91.33,8.8,89.18,10.31Z"/><path class="cls-1" d="M79.79,8.11c1.61,1.4,5,.28,4.38-2.5C81.67,5.4,80.22,6.25,79.79,8.11Z"/><path class="cls-1" d="M90.7,4.79a8.55,8.55,0,0,0-1.24,4.47c0,.6.3.34.3-.06A8.37,8.37,0,0,1,91,4.86C91.17,4.48,91,4.27,90.7,4.79Z"/><path class="cls-1" d="M90.28,4.42a10.53,10.53,0,0,0-1.93,4.82c0,.6.27.36.31,0a10.31,10.31,0,0,1,1.92-4.7C90.77,4.16,90.61,3.93,90.28,4.42Z"/><path class="cls-1" d="M89.89,3.95C89.06,5.09,87.44,6.82,87,9c-.1.6.24.38.31,0,.39-2.25,2.26-4.13,2.84-4.94C90.4,3.73,90.27,3.49,89.89,3.95Z"/><path class="cls-1" d="M89.56,3.41a16.76,16.76,0,0,0-3.65,5.41c-.18.58.18.41.31,0,.7-2.17,2.93-4.57,3.62-5.29C90.1,3.26,90,3,89.56,3.41Z"/></svg>