<svg id="mysql" xmlns="http://www.w3.org/2000/svg" viewBox="0 0 100 60"><defs><style>.cls-1{fill:#fff;}</style></defs><title>Tavola disegno 1</title><path class="cls-1" d="M79.91,58.58l-1.23-1.23a20.24,20.24,0,0,0-4.36-4.17c-1.3-.93-4.2-2.19-4.74-3.7l-.1-.1a20.85,20.85,0,0,0,2.85-.66c1.43-.38,2.7-.28,4.17-.66l2-.57V47.1c-.74-.76-1.28-1.77-2.09-2.47a60.9,60.9,0,0,0-6.83-5.12c-1.32-.84-3-1.38-4.36-2.09-.47-.24-1.3-.36-1.61-.76a20.09,20.09,0,0,1-1.71-3.23c-1.19-2.29-2.36-4.8-3.41-7.21a38.86,38.86,0,0,0-2.09-4.74c-4.31-7.08-8.94-11.36-16.13-15.56A19.33,19.33,0,0,0,35,4.22L31.82,4a16.65,16.65,0,0,1-1.9-1.42c-2.38-1.5-8.48-4.77-10.24-.47-1.11,2.71,1.66,5.36,2.66,6.74A20.36,20.36,0,0,1,24.42,12c.33.71.38,1.43.66,2.18a50.21,50.21,0,0,0,2.18,5.6,19.82,19.82,0,0,0,1.52,2.56c.35.48.95.69,1,1.42-.59.82-.62,2.09-.95,3.13C27.4,31.57,28,37.38,30.11,40.84c.66,1.06,2.22,3.34,4.36,2.47,1.87-.76,1.46-3.13,2-5.22.12-.47,0-.82.28-1.14V37l1.71,3.41a23.23,23.23,0,0,0,5.41,5.6c1,.74,1.76,2,3,2.47v-.1h-.1c-.25-.39-.63-.54-.95-.85a21.75,21.75,0,0,1-2.18-2.47A57.73,57.73,0,0,1,39,37.52c-.66-1.28-1.24-2.68-1.8-4C37,33,37,32.28,36.57,32a19,19,0,0,0-2,2.85,24.36,24.36,0,0,0-1.14,6.26c-.17.06-.09,0-.19.09-1.32-.32-1.79-1.68-2.28-2.85a17.93,17.93,0,0,1-.38-11.1c.28-.88,1.56-3.65,1-4.46-.25-.81-1.06-1.28-1.52-1.9a14.93,14.93,0,0,1-1.52-2.66c-1-2.3-1.49-4.88-2.56-7.21a21.05,21.05,0,0,0-2.09-3.23A18.81,18.81,0,0,1,21.67,4.6c-.22-.47-.51-1.22-.19-1.71a.75.75,0,0,1,.57-.57c.55-.42,2.08.14,2.66.38a23.12,23.12,0,0,1,4.08,2.09c.62.41,1.24,1.2,2,1.42h.85c1.34.31,2.83.1,4.08.47a24.67,24.67,0,0,1,6,2.85,37,37,0,0,1,13,14.23c.49.94.7,1.84,1.14,2.85.87,2,2,4.1,2.85,6.07a28.35,28.35,0,0,0,2.94,5.6c.65.86,3.14,1.32,4.27,1.8a25.13,25.13,0,0,1,2.85,1.14c1.44.87,2.83,1.9,4.17,2.85.67.47,2.74,1.51,2.85,2.37a19.09,19.09,0,0,0-8.06,1.14c-.62.26-1.61.27-1.71,1,.34.36.39.89.66,1.33a10.47,10.47,0,0,0,2.18,2.56c.86.65,1.74,1.34,2.66,1.9,1.63,1,3.46,1.56,5,2.56.93.59,1.85,1.33,2.75,2,.45.33.75.84,1.33,1v-.09C80.27,59.52,80.19,59,79.91,58.58Z"/><path class="cls-1" d="M33.34,10.29a6.78,6.78,0,0,0-1.71.19v.09h.1a13,13,0,0,0,1.33,1.71l.95,2,.09-.09A2.32,2.32,0,0,0,35,12.1c-.24-.25-.27-.56-.47-.85S33.68,10.62,33.34,10.29Z"/></svg>