<svg id="react" xmlns="http://www.w3.org/2000/svg" viewBox="0 0 100 60"><defs><style>.cls-1{fill:#fff;}</style></defs><title>Tavola disegno 1</title><circle class="cls-1" cx="49.99" cy="29.92" r="6.02"/><path class="cls-1" d="M80.23,23.92a27.36,27.36,0,0,0-8.52-4.49c-.7-.24-1.43-.47-2.17-.68.12-.5.24-1,.34-1.48,1.67-8.13.48-14.45-3.1-16.51-1.76-1-4.15-1-6.93,0A27.4,27.4,0,0,0,51.7,5.91c-.56.49-1.12,1-1.68,1.54-.37-.36-.74-.71-1.12-1C42.7.9,36.63-1.23,33.05.84c-1.76,1-3,3.1-3.46,6A27.53,27.53,0,0,0,30,16.48q.22,1.1.5,2.23c-.86.24-1.69.5-2.5.78-7.32,2.56-11.7,6.46-11.7,10.43,0,2.08,1.22,4.22,3.53,6.19a27,27,0,0,0,8.81,4.72c.59.2,1.2.4,1.82.58-.2.82-.38,1.62-.53,2.41-1.45,7.62-.25,13.36,3.19,15.35a6.33,6.33,0,0,0,3.22.79,12,12,0,0,0,3.91-.74A27.2,27.2,0,0,0,48.73,54q.7-.61,1.4-1.3c.61.59,1.21,1.14,1.82,1.66C56.26,58,60.42,60,63.68,60a6.24,6.24,0,0,0,3.17-.79c1.8-1,3-3.17,3.6-6.16a27.17,27.17,0,0,0-.34-10c-.12-.59-.25-1.19-.41-1.8.43-.13.84-.25,1.25-.4,7.87-2.6,12.76-6.79,12.76-10.93C83.7,27.9,82.5,25.82,80.23,23.92ZM60.85,3.46c1.92-.71,3.52-.78,4.5-.22s1.82,2.12,2.18,4.27a25.81,25.81,0,0,1-.46,9.17c-.1.44-.19.89-.3,1.34a69.41,69.41,0,0,0-9-1.43,69.38,69.38,0,0,0-5.7-7.12c.52-.49,1-1,1.55-1.43A24.5,24.5,0,0,1,60.85,3.46ZM59.4,35.41q-1.58,2.75-3.23,5.22c-2,.14-4.07.22-6.18.22s-4.14-.06-6.1-.19c-1.15-1.68-2.26-3.43-3.3-5.23h0Q39,32.72,37.71,30c.88-1.82,1.84-3.65,2.87-5.44h0c1-1.8,2.14-3.54,3.26-5.2,2-.16,4.08-.24,6.14-.24s4.14.08,6.14.23c1.12,1.64,2.21,3.38,3.25,5.18s2,3.65,2.9,5.4C61.43,31.76,60.45,33.58,59.4,35.41Zm4.45-2.14a61.15,61.15,0,0,1,2.27,5.94,61.18,61.18,0,0,1-6.29,1.07c.7-1.1,1.39-2.24,2.06-3.43S63.24,34.46,63.85,33.27ZM50.11,48.5c-1.37-1.48-2.72-3.11-4.06-4.85,1.28,0,2.59.07,3.94.07s2.74,0,4.08-.1A57.85,57.85,0,0,1,50.11,48.5Zm-9.89-8.16a61.9,61.9,0,0,1-6.22-1c.6-1.92,1.33-3.92,2.18-6,.6,1.16,1.24,2.33,1.91,3.48h0C38.78,38.06,39.49,39.21,40.22,40.34Zm-4-13.73A61.92,61.92,0,0,1,34,20.78c1.92-.43,4-.78,6.11-1-.71,1.1-1.39,2.23-2.06,3.4h0C37.42,24.28,36.79,25.45,36.19,26.61ZM50,11.55c1.33,1.44,2.65,3,4,4.79-1.32-.06-2.65-.1-4-.1s-2.66,0-4,.1A60.26,60.26,0,0,1,50,11.55ZM61.88,23.11c-.67-1.15-1.36-2.28-2.05-3.37C62,20,64,20.37,66,20.81a61.39,61.39,0,0,1-2.16,5.81C63.21,25.45,62.57,24.28,61.88,23.11ZM32.8,15.92a24.56,24.56,0,0,1-.37-8.58c.35-2,1.08-3.43,2.06-4s2.75-.52,4.79.25a25.68,25.68,0,0,1,7.71,5q.5.45,1,.94a69.09,69.09,0,0,0-5.74,7.11,69,69,0,0,0-9,1.4C33.09,17.29,32.93,16.6,32.8,15.92ZM29.54,38.11a24.24,24.24,0,0,1-7.86-4.18c-1.62-1.39-2.52-2.81-2.52-4,0-3,4.91-6,9.77-7.72.74-.25,1.51-.5,2.32-.73A68.18,68.18,0,0,0,34.53,30a69,69,0,0,0-3.32,8.64C30.63,38.47,30.08,38.3,29.54,38.11Zm5,18.55c-2.58-1.49-2.76-7.26-1.8-12.31.13-.72.3-1.48.49-2.23a68.46,68.46,0,0,0,9.09,1.32,70.38,70.38,0,0,0,5.78,7.15c-.43.41-.85.8-1.28,1.18C41.14,56.72,36.47,57.78,34.54,56.66Zm32.73-13c1.46,7.39,0,12-1.88,13.08-2.58,1.49-7.67-1.22-11.57-4.58q-.85-.72-1.69-1.55a65.93,65.93,0,0,0,5.65-7.18A67.77,67.77,0,0,0,66.9,42C67,42.54,67.16,43.08,67.27,43.62ZM70,38.13c-.37.12-.74.24-1.13.35a66.68,66.68,0,0,0-3.42-8.55,68.25,68.25,0,0,0,3.28-8.41c.68.2,1.36.41,2,.64a24.31,24.31,0,0,1,7.61,4c1.57,1.31,2.44,2.65,2.44,3.79C80.82,32.16,77.45,35.67,70,38.13Z"/></svg>