<svg id="riot" xmlns="http://www.w3.org/2000/svg" viewBox="0 0 100 60"><defs><style>.cls-1{fill:#fff;}</style></defs><title>Tavola disegno 1</title><path class="cls-1" d="M94.89,8H5.52C3,8,2,9,2,11.51Q2,31.25,2,51c0,2.53,1,3.5,3.55,3.5H94.9c2.54,0,3.55-1,3.55-3.51q0-19.74,0-39.48C98.45,9,97.44,8,94.89,8ZM29,40.19c-.26,0-.56-.36-.74-.62-.82-1.2-1.57-2.45-2.43-3.63a4.11,4.11,0,0,0-1.19-.78l-.25.25v4.8c-1.88,0-3.67,0-5.46,0-.16,0-.43-.62-.43-.95,0-4.55,0-9.09,0-13.64a14.56,14.56,0,0,1,0-2c0-.26.4-.68.61-.68,3.43,0,6.87,0,10.29.23a5.39,5.39,0,0,1,5,3.69,5.8,5.8,0,0,1-1,6,17.06,17.06,0,0,1-1.84,1.57l3.91,5.75C33.17,40.22,31.11,40.24,29,40.19Zm14.5,0c-1.69.06-3.39,0-5.17,0V22.9c1.78,0,3.47,0,5.16,0a.93.93,0,0,1,.61.67q.05,8,0,15.92A.93.93,0,0,1,43.54,40.19Zm13.25.41c-5.21,0-9.16-3.51-9.44-8.69a8.84,8.84,0,0,1,7-9A9.46,9.46,0,0,1,65.67,28.4C67.91,34.43,63.43,40.6,56.8,40.6Zm26-12.66c-1.35,0-2.7,0-4.2,0V40.21c-1.88,0-3.67,0-5.45,0-.16,0-.43-.62-.43-1,0-3.3,0-6.6,0-9.89V27.94c-1.41,0-2.72-.05-4,0-.86,0-1.08-.28-1-1.08.06-1,0-2.08,0-3.12,0-.6.15-.87.81-.87q7.19,0,14.37,0c.61,0,.89.18.87.83,0,1.11,0,2.22,0,3.33C83.76,27.72,83.52,28,82.83,27.95Z"/><path class="cls-1" d="M27.66,28a30.48,30.48,0,0,0-3.2,0v3c1.11,0,2.12.08,3.11,0a1.41,1.41,0,0,0,1.35-1.45A1.36,1.36,0,0,0,27.66,28Z"/><path class="cls-1" d="M56.78,27.76a3.59,3.59,0,0,0-3.46,3.79,3.5,3.5,0,1,0,7,.09A3.69,3.69,0,0,0,56.78,27.76Z"/></svg>