<svg id="ruby" xmlns="http://www.w3.org/2000/svg" viewBox="0 0 100 60"><defs><style>.cls-1{fill:#fff;}</style></defs><title>Tavola disegno 1</title><path class="cls-1" d="M22.31,30.76a33.8,33.8,0,0,1,1.86-5.67A45.42,45.42,0,0,1,47.5,3a17.31,17.31,0,0,1,6.64-1.16A4.78,4.78,0,0,1,59,6.54,10.51,10.51,0,0,1,58.64,11C53.69,24.21,44.35,33.07,31.22,38a7.37,7.37,0,0,1-1.63.32C25.12,39,22.25,36.45,22.31,30.76ZM56.67,21l21.87-1.53c-.54-.52-.85-.86-1.2-1.14-6.51-5.22-13-10.41-19.51-15.66A15.58,15.58,0,0,1,55.92.14c2.78,0,5,0,7.29,0,2.72,0,5.5-.22,8.14.26C77.06,1.46,80.11,5.15,80,10.95c-.1,5.44-.66,10.87-1.06,16.3Q78,39.73,77,52.19c-.11,1.44-.24,2.87-.39,4.57l-8.79-7.83a9.51,9.51,0,0,0-1.09-1c-3.52-2.24-5-5.59-5.79-9.59-1-5.22-2.57-10.35-3.89-15.52-.15-.58-.25-1.17-.4-1.86ZM29.46,52.76a39.06,39.06,0,0,0,4.39-.66,2.31,2.31,0,0,0,1.35-1.36c1.3-4.13,2.5-8.3,3.74-12.45.11-.36.26-.71.46-1.26l22.77,7.29A75,75,0,0,1,49.11,54.83l25.53,1.95c0,.11,0,.22,0,.33l-5.5.39L36.67,59.62c-1.72.11-3.44.3-5.16.27C24.23,59.75,20.1,55.76,20,48.46c-.05-4.11.37-8.21.63-12.32,0-.31.46-.59.71-.89.36.33.9.58,1.08,1,2.17,5,4.3,10.1,6.44,15.16C29,51.81,29.22,52.21,29.46,52.76Z"/></svg>