<svg id="ruby_on_rails" data-name="ruby on rails" xmlns="http://www.w3.org/2000/svg" viewBox="0 0 100 60"><defs><style>.cls-1{fill:#fff;}</style></defs><title>Tavola disegno 1</title><path class="cls-1" d="M87,43v4.57H95.3a4.72,4.72,0,0,0,4.7-4.7V41.11a4.67,4.67,0,0,0-4.7-4.7H91.18V34.29h8.16V29.7H91.51a4.81,4.81,0,0,0-4.72,4.77v1.59a4.72,4.72,0,0,0,4.72,4.7c5.68,0-1.36,0,3.89,0V43"/><path class="cls-1" d="M42.79,41.9s4.42-.38,4.42-6.09a6,6,0,0,0-5.35-6.24H32.21v18h4.85V43.24l4.19,4.34h7.17Zm-1.87-3.69H37.05V34.09h3.89a2,2,0,0,1,1.09,2A2.08,2.08,0,0,1,40.92,38.21Z"/><path class="cls-1" d="M59.18,29.7H54.26a4.73,4.73,0,0,0-4.7,4.7V47.58h4.93V44.42h4.62v3.16h4.77V34.4A4.66,4.66,0,0,0,59.18,29.7Zm-.08,9.62H54.46V35s0-1,1.54-1h1.69c1.36,0,1.39,1,1.39,1v4.37Z"/><rect class="cls-1" x="66.13" y="29.7" width="5.13" height="17.88"/><polygon class="cls-1" points="78.45 42.96 78.45 29.7 73.35 29.7 73.35 42.96 73.35 47.58 78.45 47.58 85.35 47.58 85.35 42.96 78.45 42.96"/><path class="cls-1" d="M1.77,47.58h20s-3.81-17.4,8.82-24.45c2.75-1.34,11.52-6.34,25.87,4.27.45-.38.88-.68.88-.68S44.15,13.61,29.53,15.07c-7.35.66-16.39,7.35-21.7,16.19A43.69,43.69,0,0,0,1.77,47.58Z"/><path class="cls-1" d="M1.77,47.58h20s-3.81-17.4,8.82-24.45c2.75-1.34,11.52-6.34,25.87,4.27.45-.38.88-.68.88-.68S44.15,13.61,29.53,15.07c-7.35.66-16.39,7.35-21.7,16.19A43.69,43.69,0,0,0,1.77,47.58Z"/><path class="cls-1" d="M1.77,47.58h20s-3.81-17.4,8.82-24.45c2.75-1.34,11.52-6.34,25.87,4.27.45-.38.88-.68.88-.68S44.15,13.61,29.53,15.07c-7.38.66-16.42,7.35-21.72,16.19A43.33,43.33,0,0,0,1.77,47.58Z"/><path class="cls-1" d="M43.34,16.49l.1-1.69A12.35,12.35,0,0,0,41,13.91l-.1,1.67C41.73,15.86,42.54,16.16,43.34,16.49Z"/><path class="cls-1" d="M40.94,21.84l-.1,1.59a14.09,14.09,0,0,1,2.5.3l.1-1.57A17.89,17.89,0,0,0,40.94,21.84Z"/><path class="cls-1" d="M31.6,14h.25l-.51-1.54a20.15,20.15,0,0,0-2.42.15l.48,1.49A21.32,21.32,0,0,1,31.6,14Z"/><path class="cls-1" d="M32.81,23.26,33.39,25a16,16,0,0,1,2.2-.88L35,22.45A18.33,18.33,0,0,0,32.81,23.26Z"/><path class="cls-1" d="M21.34,16.61l-1.14-1.74c-.63.33-1.29.68-2,1.09l1.16,1.77C20.06,17.32,20.69,16.94,21.34,16.61Z"/><path class="cls-1" d="M26.52,28l1.21,1.82A14,14,0,0,1,29.22,28l-1.14-1.72A14,14,0,0,0,26.52,28Z"/><path class="cls-1" d="M22.86,36.11l2,1.62a20.17,20.17,0,0,1,.53-3l-1.82-1.44A24,24,0,0,0,22.86,36.11Z"/><path class="cls-1" d="M11.8,24.11,10,22.55c-.66.63-1.29,1.26-1.87,1.89l1.94,1.67A25.58,25.58,0,0,1,11.8,24.11Z"/><path class="cls-1" d="M4.17,35.41l-2.9-1.06c-.48,1.09-1,2.35-1.26,3l2.9,1.06C3.23,37.58,3.76,36.34,4.17,35.41Z"/><path class="cls-1" d="M22.48,42.53a25.66,25.66,0,0,0,.3,3.18l3,1.09a33.39,33.39,0,0,1-.61-3.28Z"/></svg>