<svg id="sass" xmlns="http://www.w3.org/2000/svg" viewBox="0 0 100 60"><defs><style>.cls-1{fill:#fff;}</style></defs><title>Tavola disegno 1</title><path class="cls-1" d="M90.05,44.23c-.84,2-2,3.7-4.48,3.84,1.44-1.32,3-2.57,2.89-4.76.52.18.94.87,1.59.3Z"/><path class="cls-1" d="M69.32,25.08c-.29,1-1.08.94-1.87.9s-1.3.17-1.34,1.29c0,.83,0,2.17-1.4,2.42.3-1.08.53-2.18.93-3.23C66.32,24.65,67.94,25.14,69.32,25.08Z"/><path class="cls-1" d="M59.45,27.85c-1.42.07-3-.38-4.08,1-.1.12-.24-.22-.27-.41A3.78,3.78,0,0,1,59.45,27.85Z"/><path class="cls-1" d="M35.63,27.46a9.08,9.08,0,0,1,4.61,0A26.4,26.4,0,0,1,35.63,27.46Z"/><path class="cls-1" d="M70.15,27.8A5.72,5.72,0,0,1,70,25.29c.69.06.86.43.63,1.05S70.3,27.31,70.15,27.8Z"/><path class="cls-1" d="M60.26,11.42a4.67,4.67,0,0,1,0-3A8.84,8.84,0,0,1,60.26,11.42Z"/><path class="cls-1" d="M82.86,35a15.42,15.42,0,0,0-9.94.61c-1,.42-1.47.29-2-.71a9.61,9.61,0,0,1-.78-7.13c-.23-.82.47-1.71-.17-2.51a.59.59,0,0,0-.66-.21,3.11,3.11,0,0,1-1.87.51c-1,0-1.54.35-1.63,1.52a3.66,3.66,0,0,1-1.12,2.57,78.48,78.48,0,0,1-4.44,7.72,9,9,0,0,1-.78-7.69c.2-.64.52-1.25,0-1.86a5.58,5.58,0,0,0-4.35.57A154,154,0,0,1,47,46.53a4.11,4.11,0,0,1-.05-2.63c.54-2.19,1.11-4.38,1.66-6.56.27-1.05.17-2.33-1.07-2.2-1.73.17-1.3-.8-1.33-1.67-.09-2.56-1.59-3.62-4-2.8a11.91,11.91,0,0,0-4.89,3.65,5.39,5.39,0,0,1-1.37,1.22q-3.24,1.78-6.48,3.59c-.48.27-.84.41-1.33-.09-2.36-2.38-5.23-4.17-7.74-6.37s-4.8-4.84-4.23-8.74a11.47,11.47,0,0,1,3.51-6.54A44.78,44.78,0,0,1,42.31,5.34c3.62-.78,7.36-1,10.9.69a4.4,4.4,0,0,1,2.84,4.65c-.26,3.42-2.17,5.94-4.58,8.12a24.21,24.21,0,0,1-14.83,6.13,9.07,9.07,0,0,1-6.91-2.07c-.33-.29-.6-.91-1.1-.5s0,.85.13,1.27A4.37,4.37,0,0,0,30,25.18a9.5,9.5,0,0,0,5.61,2.29,24.19,24.19,0,0,1,4.61,0,26.3,26.3,0,0,0,8.33-2.1c6.07-2.79,10.41-7.08,11.7-13.92a15.55,15.55,0,0,1,0-3c-.51-3.82-3.08-5.83-6.4-7.09C52.37.73,50.77.42,49.23,0H43.35c-2,.35-4.08.28-6,.95C29,3.81,21.14,7.54,14.93,14.07c-2.42,2.54-4.37,5.28-5,8.82V26a11.15,11.15,0,0,0,2.94,5.49,37.22,37.22,0,0,0,6.8,5.8c1.42.94,2.77,2,4.17,2.94.86.59.86,1-.09,1.51a37.28,37.28,0,0,0-6.34,4.12c-1.95,1.6-3.84,3.27-4.71,5.79-1.46,4.2.2,7.67,4.05,8.38h3.4a11.62,11.62,0,0,0,8.43-4.8,13.65,13.65,0,0,0,2.43-12c-.27-1.2-.07-1.88,1-2.31.54-.21,1-.71,1.64-.74.07.77-.3,1.41-.15,2.08a28.93,28.93,0,0,1,0,5.22,8.15,8.15,0,0,0,1.35,3.9,3.26,3.26,0,0,0,5.54.21,20.46,20.46,0,0,0,2.26-4.43,6,6,0,0,0,.37,3.06c.71,1.85,2.26,2.27,3.8,1A8.45,8.45,0,0,0,49,48.61c1.65-3,3.32-6,4.67-9.23.51-1.2,1-2.41,1.7-3.93a12.65,12.65,0,0,0,1.35,4,2.43,2.43,0,0,1-.29,3.07c-1.31,1.79-3.08,3.19-4.22,5.1s-.38,3.1,1.69,3.13a9.51,9.51,0,0,0,7.74-3.51,3,3,0,0,0,.8-2.12,9.25,9.25,0,0,1,0-3c.07-.87-.69-1.74-.17-2.55,1.34-2.09,2.5-4.29,3.8-6.53.58,1.08.5,2.21,1.24,3,.71.54,1.54,1.05.63,2.09A23.41,23.41,0,0,0,66,40a9.9,9.9,0,0,0-2.55,5c-.31,1.9.89,3.32,2.59,3.15a7.87,7.87,0,0,0,7.16-8.81c-.07-.67,0-1.09.73-1.28a15.4,15.4,0,0,1,9.41.32,7.82,7.82,0,0,1,4.83,5.06c.58.42,1.14,1.13,1.84.14V42.06A9.52,9.52,0,0,0,82.86,35ZM21.12,55.6c-1.13.4-2.39.78-3.35-.16s-.56-2.33-.18-3.47a9,9,0,0,1,2.83-4,42.75,42.75,0,0,1,5.48-4c1.5-.91,1.59-.85,1.71,1,0,.36,0,.72.05.92A10.21,10.21,0,0,1,21.12,55.6ZM43.39,36.35a67.32,67.32,0,0,1-3.64,9.81,9.65,9.65,0,0,1-.68,1.21c-.19.3-.4.69-.8.64s-.61-.55-.7-.92c-.19-.79-.27-1.62-.36-2.17a16.48,16.48,0,0,1,3.62-9.74,1,1,0,0,1,.1-.12c.72-.65,1.56-1.65,2.47-1.18S43.61,35.55,43.39,36.35Zm11.44,11.9L58.51,44C58.38,46.34,56.84,47.49,54.83,48.25ZM66.22,45.7c.15-2.31,1.41-3.9,2.94-5.46C70.1,42.67,68.91,44.87,66.22,45.7Z"/><path class="cls-1" d="M33.84,47.6a15.41,15.41,0,0,1,0-5.52A13.76,13.76,0,0,1,33.84,47.6Z"/><path class="cls-1" d="M68.34,38.33c0-.92-.79-1.57-.87-2.46C68.63,36.39,69.16,37.12,68.34,38.33Z"/><path class="cls-1" d="M62.14,42.07a8.2,8.2,0,0,1,0,3.06A4.14,4.14,0,0,1,62.14,42.07Z"/></svg>