<svg id="shopify" xmlns="http://www.w3.org/2000/svg" viewBox="0 0 100 60"><defs><style>.cls-1{fill:#fff;}</style></defs><title>Tavola disegno 1</title><path class="cls-1" d="M76.27,55.24c-.86-5.84-6.4-43.26-6.44-43.57a.56.56,0,0,0-.53-.48c-.24,0-4.82-.34-4.82-.34S61.3,7.66,60.92,7.33a.92.92,0,0,0-.48-.24v0a1.81,1.81,0,0,0-.82.06s-.72.19-1.78.53c-1.06-3.08-2.94-5.93-6.27-5.93h-.29A4,4,0,0,0,48.14,0C40.39,0,36.67,9.69,35.52,14.6c-3,.92-5.16,1.59-5.4,1.69-1.69.53-1.73.58-1.93,2.17-.19,1.16-4.58,35.13-4.58,35.13L57.83,60l18.55-4ZM51,9.45v.34l-6,1.83c1.16-4.39,3.33-6.55,5.2-7.37A14.25,14.25,0,0,1,51,9.45ZM47.9,2.07a1.7,1.7,0,0,1,1,.34c-2.46,1.16-5.16,4.1-6.27,10-1.64.53-3.23,1-4.72,1.45C39.23,9.35,42.36,2.07,47.9,2.07Zm1.35,26.17a10.66,10.66,0,0,0-4.43-1.06c-3.61,0-3.76,2.27-3.76,2.84,0,3.08,8.1,4.29,8.1,11.57,0,5.73-3.61,9.4-8.53,9.4a11.8,11.8,0,0,1-8.87-3.66l1.59-5.2s3.08,2.65,5.69,2.65a2.32,2.32,0,0,0,2.41-2.31c0-4-6.65-4.24-6.65-10.89,0-5.59,4-11,12.14-11a9.59,9.59,0,0,1,4.58.92ZM53,9.2V8.58a15.26,15.26,0,0,0-.67-4.67C54.07,4.1,55.18,6,55.9,8.29,55,8.58,54.07,8.87,53,9.2Z"/></svg>