<svg id="slack" xmlns="http://www.w3.org/2000/svg" viewBox="0 0 100 60"><defs><style>.cls-1{fill:#fff;}</style></defs><title>Tavola disegno 1</title><path class="cls-1" d="M74.42,20A36.53,36.53,0,0,0,68.71,8.61c-3.53-4.48-8.28-6.23-13.82-6.1A43.84,43.84,0,0,0,43.67,4.46c-4.79,1.39-9.5,3-13.68,5.82A15.81,15.81,0,0,0,22.63,22.2a32,32,0,0,0,1,10.78c1.37,5.75,3.1,11.37,6.26,16.45,3.4,5.47,8.37,8.29,14.77,8.07a52.19,52.19,0,0,0,10-1.48A47.34,47.34,0,0,0,69.51,50.1c5.37-3.43,8.12-8.3,8-13.27A51.45,51.45,0,0,0,74.42,20Zm-9,14.77c-.55.2-1.11.38-1.66.57l-1.64.56c.38,1.18.76,2.31,1.12,3.45a2.85,2.85,0,1,1-5.36,1.9c-.41-1.13-.78-2.27-1.21-3.53L49.35,40.2c.38,1.15.74,2.24,1.09,3.34.59,1.84-.08,3.42-1.68,4s-3.09-.3-3.72-2.13c-.36-1-.71-2.08-1.07-3.11,0-.06-.09-.11-.16-.19-1.13.37-2.27.76-3.42,1.11a2.84,2.84,0,1,1-1.76-5.4c1.1-.39,2.21-.76,3.45-1.18l-2.35-7c-1.18.38-2.28.76-3.39,1.1a2.85,2.85,0,1,1-1.81-5.4L37.9,24.1c-.42-1.27-.81-2.44-1.18-3.63a2.84,2.84,0,1,1,5.36-1.87c.44,1.16.81,2.34,1.26,3.67l7.31-2.43c-.43-1.33-.88-2.59-1.25-3.87A2.84,2.84,0,0,1,54.72,14c.23.5.37,1,.55,1.55L56.1,18c1.25-.41,2.38-.79,3.53-1.15a2.84,2.84,0,0,1,1.91,5.34c-1.15.46-2.34.81-3.63,1.26l2.36,7,3.32-1.08a2.86,2.86,0,1,1,1.82,5.39Z"/><path class="cls-1" d="M45.14,27.73l2.38,7.06,7.33-2.47-2.38-7.06Z"/></svg>