<svg id="solidus" xmlns="http://www.w3.org/2000/svg" viewBox="0 0 100 60"><defs><style>.cls-1{fill:#fff;}</style></defs><title>Tavola disegno 1</title><path class="cls-1" d="M10.79,32.32c-1.06-.21-2.14-.36-3.17-.66s-3.09-.11-2.87-2,2.06-1.84,3.56-1.78a2.9,2.9,0,0,1,1.65.46c1.93,1.6,3,.63,4-1.24-3-2.19-6.28-3-9.81-1.46a4.75,4.75,0,0,0-3,4.76c.05,2.25,1.55,3.21,3.38,3.78,1.58.49,3.22.79,4.84,1.16,1,.22,1.81.69,1.76,1.77s-.9,1.55-1.82,1.8A5.62,5.62,0,0,1,4.11,37.8c-1.23-1-1.94-.8-2.8.3L.2,39.41c1.68,2.22,4,2.78,6.66,2.74A6.82,6.82,0,0,0,9.21,42a18.59,18.59,0,0,0,2.57-.92A4.9,4.9,0,0,0,14.64,36C14.42,33.71,12.83,32.73,10.79,32.32Z"/><path class="cls-1" d="M66.34,20.32c-1.86,0-1.75.91-1.71,2.14s0,2.45,0,3.83c-1.1-.41-2-.81-2.94-1.08C55,23.31,49,28.39,50.18,35c.74,4.11,3.56,6.21,7.5,7,2-.05,4.09,0,5.94-1.1,1.33-.79.94.4,1.1,1l3.42,0c0-6.5,0-13,.07-19.5C68.22,20.89,68,20.35,66.34,20.32ZM59.07,38.74a5.3,5.3,0,0,1-5.35-5.41A5.23,5.23,0,0,1,59,28.16a5.16,5.16,0,0,1,5.31,5.38A5.22,5.22,0,0,1,59.07,38.74Z"/><path class="cls-1" d="M83.16,24.82c-1.51-.06-1.79.53-1.74,1.87.09,2.57.1,5.16,0,7.73s-1.73,4.12-4.08,4-3.66-1.55-3.76-4.1-.09-5,0-7.48c0-1.37-.12-2.08-1.82-2.09s-1.88.75-1.8,2.1,0,2.49,0,3.74,0,2.5,0,3.74C70.1,39,73,42,77.38,42S84.89,39.08,85,34.3c.07-2.58-.08-5.16,0-7.73C85.14,25,84.45,24.87,83.16,24.82Z"/><path class="cls-1" d="M96.4,32.43C95,32.06,93.48,31.8,92,31.5c-1-.21-2.08-.49-2-1.8s1.16-1.7,2.32-1.83A6.06,6.06,0,0,1,96.61,29c1.47,1,1.57-.67,2.19-1.19.89-.75,0-1.1-.53-1.4-2.73-1.57-5.61-2.15-8.59-.9a4.91,4.91,0,0,0-3.24,4.88c0,2.32,1.69,3.32,3.62,3.89,1.59.47,3.24.74,4.86,1.12a1.71,1.71,0,0,1,1.49,1.47,1.81,1.81,0,0,1-1.33,1.89,4.77,4.77,0,0,1-5-.57c-2.17-1.83-3.17-.68-4.27,1.08A10.84,10.84,0,0,0,91.66,42l3.05,0c2.32-.53,4.27-1.53,5-4l.06-2.62C99.36,33.55,98,32.82,96.4,32.43Z"/><path class="cls-1" d="M40.75,37.9c-1.12-.45-1.1-1.74-1.1-2.83,0-2.89-.19-5.81,0-8.68.32-3.89-.89-6.78-4.5-8.5-1.57-.35-1.66,1.06-2.09,1.89-.54,1,.62,1.14,1.14,1.42,1.57.84,1.84,2.22,1.84,3.77,0,3.31,0,6.62,0,9.93,0,4,1.54,5.88,5.57,6.92C42.63,40.22,43.11,38.84,40.75,37.9Z"/><path class="cls-1" d="M46.52,27.35c-1.35,0-1.88.28-1.84,1.76.11,4.23.06,8.47.07,12.71l3.42.05c0-4.24,0-8.47.11-12.71C48.32,27.79,48,27.33,46.52,27.35Z"/><path class="cls-1" d="M46.51,23.85a1.61,1.61,0,0,0,1.71-1.73,1.67,1.67,0,0,0-1.71-1.73,1.71,1.71,0,0,0-1.74,1.75A1.63,1.63,0,0,0,46.51,23.85Z"/><path class="cls-1" d="M25,24.87a8.62,8.62,0,0,0-8.75,7.3c-.64,4.81,2.11,8.41,7.47,9.8h3c5.38-1.38,8.1-4.94,7.48-9.78C33.63,27.81,29.84,24.8,25,24.87Zm0,13.86a5.29,5.29,0,1,1,5.57-5.21A5.33,5.33,0,0,1,25,38.73Z"/></svg>