<svg id="spree_commerce" data-name="spree commerce" xmlns="http://www.w3.org/2000/svg" viewBox="0 0 100 60"><defs><style>.cls-1{fill:#fff;}</style></defs><title>Tavola disegno 1</title><path class="cls-1" d="M9.63,29.39c1-.21,2-.42,3-.65.22-1,.42-1.94.61-2.91a4.21,4.21,0,0,0,1.88.63,6,6,0,0,0,5.53-3.84,33.26,33.26,0,0,0,.94-3.76,5.82,5.82,0,0,0-.1-3.66,3.74,3.74,0,0,0-3.47-2,5.23,5.23,0,0,0-2.89,1c-.24-.35-.47-.7-.72-1-.79.45-1.57.93-2.34,1.42.68,1.59,0,3.25-.28,4.84C11.06,22.72,10.31,26,9.63,29.39ZM15,17.67a2.57,2.57,0,0,1,2.34-2A1.54,1.54,0,0,1,19,17.07a17.44,17.44,0,0,1-.55,3.36c-.27,1.24-.55,2.74-1.83,3.34A1.65,1.65,0,0,1,14,22.69,24.19,24.19,0,0,1,15,17.67Z"/><path class="cls-1" d="M4.3,24c-.93,0-1.55-.74-2.08-1.38C1.47,23.07.72,23.49,0,24a4,4,0,0,0,1.71,2,5.53,5.53,0,0,0,6.72-1.83,3.25,3.25,0,0,0,.2-3.53C7.74,19.21,6,18.76,4.95,17.55a1.21,1.21,0,0,1,.82-1.91c1-.34,1.94.36,2.67,1q1-.78,2-1.58a4.25,4.25,0,0,0-2.05-1.61A5.23,5.23,0,0,0,2.08,16,3.13,3.13,0,0,0,3,19.74c1,.87,2.31,1.29,3.09,2.37C6.58,23.15,5.27,24.11,4.3,24Z"/><path class="cls-1" d="M22.26,26.44h2.86c.57-2.64,1.07-5.3,1.71-7.92A4,4,0,0,1,28,16.09a3.09,3.09,0,0,1,2.07-.39c.43-.78.85-1.56,1.22-2.37a5,5,0,0,0-4.13.78q-.4-.49-.82-1c-.74.44-1.52.83-2.22,1.34,0,.78.39,1.56.16,2.35C23.64,20,22.93,23.24,22.26,26.44Z"/><path class="cls-1" d="M45.59,26.46a6.07,6.07,0,0,0,4.52-1.92c-.34-.53-.68-1.06-1-1.6-1.1.69-2.47,1.53-3.79.92-1-.48-.89-1.72-.75-2.63a9.91,9.91,0,0,0,5.61-.9,4.64,4.64,0,0,0,2.17-4.59,2.94,2.94,0,0,0-1.86-2.22A6.06,6.06,0,0,0,44,15.06c-1.38,1.33-1.68,3.31-2.08,5.09-.22,1.33-.63,2.74-.13,4.05A3.89,3.89,0,0,0,45.59,26.46Zm.69-10.27a2.33,2.33,0,0,1,2.95-.27,1.79,1.79,0,0,1-.63,2.58,6.75,6.75,0,0,1-3.56.4A4.81,4.81,0,0,1,46.28,16.19Z"/><path class="cls-1" d="M30.53,24.28a3.87,3.87,0,0,0,3.63,2.17,6.11,6.11,0,0,0,4.64-1.92l-1.05-1.6c-1.08.77-2.51,1.53-3.83.9-.92-.52-.79-1.7-.7-2.59a11.42,11.42,0,0,0,5-.58A4.58,4.58,0,0,0,41,15.41a3.34,3.34,0,0,0-3-2.19,6.11,6.11,0,0,0-5.42,2c-1.3,1.42-1.58,3.41-2,5.22A7.19,7.19,0,0,0,30.53,24.28ZM35,16.14h0A2.25,2.25,0,0,1,37.94,16a1.82,1.82,0,0,1-.75,2.58,7.35,7.35,0,0,1-3.5.37A5,5,0,0,1,35,16.14Z"/><path class="cls-1" d="M14.49,33.78a6,6,0,0,0-4,4,28.13,28.13,0,0,0-1,5.29,3.43,3.43,0,0,0,1,2.82,4.13,4.13,0,0,0,3.63.85,5.74,5.74,0,0,0,4.42-4.26c.49-2,1.2-4.15.93-6.27S16.43,33.11,14.49,33.78Zm2.18,8.46a3.59,3.59,0,0,1-3.17,2.89,2,2,0,0,1-2.13-2,23.49,23.49,0,0,1,.85-4.66,3.92,3.92,0,0,1,2.28-2.91,2.11,2.11,0,0,1,3.09,1.72A25.36,25.36,0,0,1,16.67,42.24Z"/><path class="cls-1" d="M32.6,33.69a4.94,4.94,0,0,0-2.55,1.58,3.26,3.26,0,0,0-2.19-1.63,4,4,0,0,0-3.37,1.27q-.33-.66-.68-1.32l-1.61.9c.72,1.7,0,3.48-.28,5.18-.5,2.4-1,4.79-1.51,7.19h2c.64-3,1.22-6.06,2-9.05a3.17,3.17,0,0,1,1.44-2.17,1.9,1.9,0,0,1,2.22.15,3.42,3.42,0,0,1,.29,2.78c-.59,2.76-1.2,5.53-1.76,8.3h2c.5-2.34,1-4.68,1.5-7a15.39,15.39,0,0,1,.9-3.15,2.22,2.22,0,0,1,3.08-1c.8.68.6,1.86.46,2.78-.58,2.81-1.2,5.62-1.78,8.43h2c.6-2.78,1.2-5.55,1.78-8.34a4.69,4.69,0,0,0-.53-3.85A3.13,3.13,0,0,0,32.6,33.69Z"/><path class="cls-1" d="M49.87,33.65a5,5,0,0,0-2.76,1.62,3.16,3.16,0,0,0-2.19-1.64,4.17,4.17,0,0,0-3.36,1.25c-.22-.43-.45-.86-.69-1.28-.54.29-1.07.58-1.6.89a4.83,4.83,0,0,1,.2,2.92c-.67,3.15-1.36,6.3-2,9.46l2,0c.63-3,1.21-5.93,1.93-8.87a3.43,3.43,0,0,1,1.33-2.25,1.86,1.86,0,0,1,2.48.2,3.51,3.51,0,0,1,.21,2.47c-.58,2.83-1.21,5.64-1.79,8.47h2q.82-3.88,1.66-7.75a7.48,7.48,0,0,1,1-2.83,2.25,2.25,0,0,1,2.68-.75c.94.64.77,1.94.61,2.91q-.89,4.21-1.79,8.42l2,0c.58-2.82,1.21-5.62,1.78-8.44A4.67,4.67,0,0,0,53,34.8,3.07,3.07,0,0,0,49.87,33.65Z"/><path class="cls-1" d="M96.34,33.51h-2.2l-.25.54.82.14c-.19.86-.37,1.72-.52,2.59l.72,0c.17-.86.36-1.72.53-2.58l.86-.12Z"/><path class="cls-1" d="M3,38a3.67,3.67,0,0,1,2.9-2.7,3,3,0,0,1,2.2,1.07l1.43-1a3.43,3.43,0,0,0-2.37-1.72A5.58,5.58,0,0,0,1.3,37.42,29,29,0,0,0,.13,42.72a3.68,3.68,0,0,0,.82,3.07,4.1,4.1,0,0,0,4.22.85,6.19,6.19,0,0,0,2.78-2l-1.18-.94a4.21,4.21,0,0,1-2.89,1.38,1.91,1.91,0,0,1-1.84-2A25,25,0,0,1,3,38Z"/><path class="cls-1" d="M89.37,33.61a5.67,5.67,0,0,0-5.75,4h0a28.85,28.85,0,0,0-1.14,5.56,3.36,3.36,0,0,0,2.2,3.52,5.55,5.55,0,0,0,6.15-2.42l-1.23-.74c-1.05,1.1-2.71,2.18-4.23,1.36-1.25-.72-.95-2.31-.7-3.49a11.8,11.8,0,0,0,5.52-.8,4.32,4.32,0,0,0,2.2-5A3.25,3.25,0,0,0,89.37,33.61Zm0,5.5c-1.32.78-2.92.54-4.37.57a6.28,6.28,0,0,1,1.33-3.38A2.81,2.81,0,0,1,90,35.76C91,36.65,90.48,38.45,89.41,39.11Z"/><path class="cls-1" d="M76,38a3.68,3.68,0,0,1,2.88-2.7,3,3,0,0,1,2.21,1.07l1.43-1A3.82,3.82,0,0,0,81,33.94a4.72,4.72,0,0,0-4.53.57h0A6,6,0,0,0,74,38.09a26.37,26.37,0,0,0-1,5.26,3.26,3.26,0,0,0,1.6,3c2.14,1.19,4.85.12,6.25-1.72l-1.18-.93c-.83.67-1.73,1.49-2.88,1.38a1.9,1.9,0,0,1-1.84-2A25.4,25.4,0,0,1,76,38Z"/><path class="cls-1" d="M99,33.51c-.37.71-.72,1.43-1.13,2.12-.11-.7-.16-1.41-.22-2.12h-.9q-.39,1.64-.7,3.29l.65,0c.13-.61.26-1.22.43-1.83.09.61.14,1.23.2,1.85l.64,0c.33-.66.66-1.33,1-2-.1.68-.23,1.35-.35,2l.68-.09c.2-1.07.44-2.14.65-3.21Z"/><path class="cls-1" d="M74.19,33.75a5.2,5.2,0,0,0-4.5,1q-.34-.58-.71-1.14l-1.6.84a5.36,5.36,0,0,1,.24,2.8c-.67,3.21-1.38,6.42-2,9.63h2c.7-3.12,1.21-6.27,2.1-9.34a2.82,2.82,0,0,1,3.59-1.95C73.57,35,73.9,34.37,74.19,33.75Z"/><path class="cls-1" d="M61.76,33.61a5.68,5.68,0,0,0-5.75,4,27,27,0,0,0-1.15,5.74,3.34,3.34,0,0,0,2.53,3.42,5.64,5.64,0,0,0,5.83-2.51L62,43.49a5.13,5.13,0,0,1-2.74,1.61,2,2,0,0,1-2.17-.94c-.51-.86-.16-1.87,0-2.79,2,0,4.06.05,5.81-1a4.35,4.35,0,0,0,2-4.64A3.21,3.21,0,0,0,61.76,33.61Zm-.09,5.59c-1.3.68-2.83.46-4.24.49.29-1.22.44-2.62,1.45-3.49a2.8,2.8,0,0,1,3.62-.34A2.27,2.27,0,0,1,61.67,39.2Z"/></svg>