<svg id="trello" xmlns="http://www.w3.org/2000/svg" xmlns:xlink="http://www.w3.org/1999/xlink" viewBox="0 0 100 60"><defs><style>.cls-1,.cls-2{fill:none;}.cls-1{clip-rule:evenodd;}.cls-3{clip-path:url(#clip-path);}.cls-4{clip-path:url(#clip-path-2);}.cls-5{fill:#fff;}</style><clipPath id="clip-path"><path id="SVGID" class="cls-1" d="M32.95,9.65a3.3,3.3,0,0,0-3.3,3.3V44.16a3.3,3.3,0,0,0,3.3,3.3H43.13a3.3,3.3,0,0,0,3.3-3.3V12.95a3.3,3.3,0,0,0-3.3-3.3Zm23.92,0a3.3,3.3,0,0,0-3.3,3.3V30.41a3.3,3.3,0,0,0,3.3,3.3H67.05a3.3,3.3,0,0,0,3.3-3.3V13a3.3,3.3,0,0,0-3.3-3.3ZM29.38,2.5A6.88,6.88,0,0,0,22.5,9.38V50.62a6.88,6.88,0,0,0,6.88,6.88H70.62a6.88,6.88,0,0,0,6.88-6.88V9.38A6.88,6.88,0,0,0,70.62,2.5Z"/></clipPath><clipPath id="clip-path-2"><rect id="SVGID-2" data-name="SVGID" class="cls-2" x="-744.47" y="-79.45" width="911.9" height="680.9"/></clipPath></defs><title>Tavola disegno 1</title><g class="cls-3"><g class="cls-4"><rect class="cls-5" x="21.13" y="1.13" width="57.75" height="57.75"/></g></g></svg>