<svg id="vim" xmlns="http://www.w3.org/2000/svg" viewBox="0 0 100 60"><defs><style>.cls-1{fill:#fff;}</style></defs><title>Tavola disegno 1</title><path class="cls-1" d="M53.94,37.41a.72.72,0,0,0,.4.23h2.39a.72.72,0,0,0,.4-.23l.63-.67a.38.38,0,0,0,.14-.27l.68-2.3a.64.64,0,0,0-.14-.59l-.49-.4c-.09-.09-.27,0-.41,0H55.39L55.25,33c-.09,0-.18,0-.27,0l-.86.54c-.09,0-.14.23-.18.32l-.72,2.21a.63.63,0,0,0,.13.67l.59.63ZM54.3,49.3l-.18,0h-.54l3.24-9.5a.6.6,0,0,0-.36-.77l-.18,0H50.83a.57.57,0,0,0-.45.45l-.32,1.13a.57.57,0,0,0,.45.68l.14,0h.81l-3.29,9.41a.74.74,0,0,0,.36.86l.18.14h5a.68.68,0,0,0,.59-.5l.31-1.08a.57.57,0,0,0-.36-.77Zm23.92-8.87-.86-1.13v0a.67.67,0,0,0-.45-.27H73.67c-.18,0-.31.18-.45.27l-.91,1.08H70.92L70,39.25v0a.55.55,0,0,0-.45-.23h-1.8l9.1-9.1L66.65,19.79l9.1-9.37V6.37L74.48,4.75H56.06L54.57,6.32V7.63L49.48,2.5,46,5.88,44.93,4.75H26.74L25.29,6.42v4.24L26.64,12H28V23.71L21.69,30,28,36.33V50.74L30.34,52h5.22l4.1-4.28,9.73,9.73L55.92,51c0,.18.18.23.41.31l.18-.09h4.24c.27,0,.49,0,.54-.27l.32-.9a.51.51,0,0,0-.36-.67l-.18,0h-.18l1.53-4.82,1-1H65.7L63.45,50.7c-.09.31.09.49.4.63l.18-.09h4.1c.23,0,.45,0,.54-.27l.36-.81a.55.55,0,0,0-.31-.72s-.14,0-.23,0h-.18l1.89-5.85h2.74l-2.3,7.16c-.09.32.09.5.4.59l.18-.14h4.5c.23,0,.45,0,.54-.27l.36-.9a.48.48,0,0,0-.36-.67s-.13,0-.23,0h-.31l2.52-8.33a.75.75,0,0,0,0-.63h0ZM49.48,3.35l5.09,5.09v2.12l1.53,1.84h.72L43.76,25V12.41h1.49l1.22-1.89v-4l-.09-.13,3.11-3ZM22.55,30,28,24.57v10.9ZM40.07,47.27l26.31-27L76,29.93,66.91,39h0a.82.82,0,0,0-.31.23l-.94,1.08H64.3l-1-1.08a.61.61,0,0,0-.45-.27h-4a.62.62,0,0,0-.58.45L58,40.56a.57.57,0,0,0,.36.72H59L56.11,49.8l-6.8,6.85-9.23-9.37Z"/></svg>